<svg xmlns="http://www.w3.org/2000/svg" viewBox="0 0 32 32">
  <path fill="url(#a)" d="M0 10c0-3.5 0-5.25.681-6.587A6.25 6.25 0 0 1 3.413.68C4.75 0 6.5 0 10 0h12c3.5 0 5.25 0 6.587.681a6.25 6.25 0 0 1 2.732 2.732C32 4.75 32 6.5 32 10v12c0 3.5 0 5.25-.681 6.587a6.25 6.25 0 0 1-2.732 2.732C27.25 32 25.5 32 22 32H10c-3.5 0-5.25 0-6.587-.681A6.25 6.25 0 0 1 .68 28.587C0 27.25 0 25.5 0 22V10Z"/>
  <path fill="#fff" d="M23.5 8.88h-1v1h1v-1Zm-3.499 7.003v-2.004h2v2H24v.634c0 .733-.062 1.601-.206 2.283-.08.38-.201.76-.344 1.123a7.834 7.834 0 0 1-1.335 2.241l-.017.02-.028.033c-.077.09-.153.18-.237.267a7.888 7.888 0 0 1-.302.302 7.95 7.95 0 0 1-4.69 2.179 11 11 0 0 1-.841.044 11.84 11.84 0 0 1-.841-.044 7.954 7.954 0 0 1-4.69-2.179 7.888 7.888 0 0 1-.302-.302c-.088-.091-.167-.184-.248-.279l-.034-.04a7.834 7.834 0 0 1-1.335-2.242 7.132 7.132 0 0 1-.345-1.123C8.062 18.113 8 17.246 8 16.513V9.005h3.999v6.877s0 .528.006.7l.002.04c.008.224.017.442.04.66.066.618.202 1.203.484 1.699.081.143.164.282.263.414a4.022 4.022 0 0 0 2.658 1.572c.136.02.41.037.548.037.137 0 .412-.017.547-.037a4.022 4.022 0 0 0 2.66-1.572c.099-.132.18-.27.262-.414.282-.496.418-1.081.484-1.699.024-.218.032-.437.04-.66l.002-.04c.006-.172.006-.7.006-.7Z"/>
  <path fill="#fff" d="M20.5 10.38H22v1.5h2v2h-2v-2h-1.5v-1.5Z"/>
  <defs>
    <radialGradient id="a" cx="0" cy="0" r="1" gradientTransform="matrix(0 32 -32 0 16 0)" gradientUnits="userSpaceOnUse">
      <stop stop-color="#006FFF"/>
      <stop offset="1" stop-color="#003C9E"/>
    </radialGradient>
  </defs>
</svg>
